<?xml version="1.0" encoding="iso-8859-1"?>
<!-- Generator: Adobe Illustrator 19.0.0, SVG Export Plug-In . SVG Version: 6.00 Build 0)  -->
<svg version="1.1" id="Capa_1" xmlns="http://www.w3.org/2000/svg" xmlns:xlink="http://www.w3.org/1999/xlink" x="0px" y="0px"
	 viewBox="0 0 512 512" style="enable-background:new 0 0 512 512;" xml:space="preserve">
<circle style="fill:#4A5370;" cx="255.998" cy="256" r="255.998"/>
<path style="fill:#F9E7CD;" d="M512,256.001c0,6.426-0.24,12.789-0.711,19.09H0.714c-0.47-6.301-0.711-12.664-0.711-19.09
	c0-141.384,114.614-255.998,255.998-255.998S512,114.617,512,256.001z"/>
<g>
	<rect x="134.478" y="44.169" style="fill:#4A5370;" width="20.898" height="42.841"/>
	<rect x="356.621" y="44.169" style="fill:#4A5370;" width="20.898" height="42.841"/>
</g>
<g>
	<path style="fill:#37425B;" d="M116.132,378.285v58.587c0,6.447-5.224,11.671-11.661,11.671H87.293
		c-21.441-18.798-39.716-41.127-53.916-66.079v-4.18L116.132,378.285L116.132,378.285z"/>
	<path style="fill:#37425B;" d="M478.626,378.285v4.18c-14.2,24.952-32.475,47.281-53.916,66.079h-17.178
		c-6.447,0-11.661-5.224-11.661-11.671v-58.587L478.626,378.285L478.626,378.285z"/>
</g>
<path style="fill:#27D1CF;" d="M498.699,276.345v61.314c-1.379,4.106-2.863,8.161-4.441,12.173
	c-4.462,11.295-9.686,22.193-15.632,32.632c-1.62,2.853-3.302,5.663-5.026,8.443H38.403c-1.724-2.779-3.406-5.59-5.026-8.443
	c-5.945-10.438-11.17-21.337-15.632-32.632c-1.588-4.023-3.072-8.087-4.451-12.204v-61.283c0-10.031,2.581-19.728,7.293-28.243
	c4.295-7.774,10.365-14.587,17.878-19.801l23.824-16.478l21.859-95.263c5.235-22.852,25.579-39.058,49.026-39.058h245.644
	c23.447,0,43.781,16.206,49.037,39.058l21.838,95.263l23.844,16.478C489.295,239.22,498.699,257.171,498.699,276.345z"/>
<path style="fill:#13BFBE;" d="M163.006,77.502c-29.832,0-38.222,81.031-59.12,134.321c0,0-65.421,16.478-72.536,67.448
	l-18.056,9.028v-11.954c0-10.031,2.581-19.728,7.293-28.243c4.295-7.774,10.365-14.587,17.878-19.801l23.824-16.478l21.859-95.263
	c5.235-22.852,25.579-39.058,49.026-39.058C133.175,77.502,163.006,77.502,163.006,77.502z"/>
<path style="fill:#4A5370;" d="M408.128,211.822H103.883c-7.029,0-12.236-6.53-10.663-13.381l17.39-75.799
	c2.426-10.59,11.705-17.994,22.576-17.994h245.629c10.871,0,20.15,7.404,22.586,17.994l17.38,75.799
	C420.354,205.292,415.157,211.822,408.128,211.822z"/>
<path style="fill:#37425B;" d="M376.39,390.906v6.089c0,14.788-20.523,26.776-45.839,26.776H181.448
	c-25.317,0-45.839-11.988-45.839-26.776v-6.089H376.39z"/>
<g>
	<path style="fill:#13BFBE;" d="M27.254,371.044c-3.479-6.896-6.646-13.97-9.509-21.211c-1.588-4.023-3.072-8.087-4.451-12.204
		v-61.283c0-10.021,2.57-19.707,7.283-28.212c-0.282,1.86-14.817,101.616,171.906,101.616
		C311.788,349.749,156.967,362.026,27.254,371.044z"/>
	<path style="fill:#13BFBE;" d="M369.99,334.221H142.011c-3.183,0-5.764-2.58-5.764-5.764v-8.779c0-3.183,2.58-5.764,5.764-5.764
		H369.99c3.183,0,5.764,2.58,5.764,5.764v8.779C375.753,331.641,373.173,334.221,369.99,334.221z"/>
	<path style="fill:#13BFBE;" d="M369.99,301.087H142.011c-3.183,0-5.764-2.58-5.764-5.764v-8.779c0-3.183,2.58-5.764,5.764-5.764
		H369.99c3.183,0,5.764,2.58,5.764,5.764v8.779C375.753,298.507,373.173,301.087,369.99,301.087z"/>
</g>
<path style="fill:#F9E7CD;" d="M494.258,349.832c-4.462,11.295-9.686,22.193-15.632,32.632c-1.62,2.853-3.302,5.663-5.026,8.443
	H38.403c-1.724-2.779-3.406-5.59-5.026-8.443c-5.945-10.438-11.17-21.337-15.632-32.632c0.627-0.063,1.254-0.094,1.891-0.094h472.74
	C493.014,349.738,493.641,349.77,494.258,349.832z"/>
<path style="fill:#5D6A89;" d="M394.737,161.45c2.387,7.62-6.428,13.802-12.78,8.965l-23.51-17.904l-24.665-18.783
	c-6.239-4.751-2.879-14.709,4.963-14.709h36.687c3.581,0,6.747,2.326,7.817,5.744L394.737,161.45z"/>
<path style="fill:#E8D4BB;" d="M481.489,377.271c-0.93,1.745-1.881,3.479-2.863,5.193c-1.62,2.853-3.302,5.663-5.026,8.443H38.403
	c-1.724-2.779-3.406-5.59-5.026-8.443c-0.982-1.724-1.933-3.448-2.873-5.193H481.489z"/>
<path style="fill:#37425B;" d="M215.389,211.822H103.883c-7.029,0-12.236-6.53-10.663-13.381l17.39-75.799
	c2.426-10.59,11.705-17.994,22.576-17.994C133.186,104.649,114.38,198.399,215.389,211.822z"/>
<path style="fill:#13BFBE;" d="M413.506,334.933c-12.078,0-21.905-9.826-21.905-21.905v-23.691c0-11.46,8.828-20.955,20.185-21.82
	c0.767-0.085,1.378-0.085,1.72-0.085h55.59c12.078,0,21.905,9.826,21.905,21.905v23.691c0,2.035-0.279,4.013-0.827,5.882
	c-2.608,9.444-11.247,16.023-21.079,16.023H413.506z"/>
<path style="fill:#EDAB49;" d="M479.958,289.338v23.691c0,0.994-0.129,1.951-0.405,2.853c-1.233,4.621-5.448,8.007-10.455,8.007
	h-55.59c-6.001,0-10.861-4.86-10.861-10.861v-23.691c0-5.78,4.51-10.511,10.216-10.824c0.203-0.037,0.423-0.037,0.645-0.037h55.59
	C475.099,278.478,479.958,283.337,479.958,289.338z"/>
<path style="fill:#FFC772;" d="M479.958,289.338v23.691c0,0.994-0.129,1.951-0.405,2.853c-0.203,0.037-0.423,0.037-0.626,0.037
	h-55.609c-6.001,0-10.861-4.86-10.861-10.861v-23.691c0-0.994,0.129-1.951,0.405-2.853c0.203-0.037,0.423-0.037,0.645-0.037h55.59
	C475.099,278.478,479.958,283.337,479.958,289.338z"/>
<path style="fill:#13BFBE;" d="M42.903,334.933c-12.078,0-21.905-9.826-21.905-21.905v-23.691c0-11.46,8.828-20.955,20.185-21.82
	c0.767-0.085,1.378-0.085,1.72-0.085h55.59c12.078,0,21.905,9.826,21.905,21.905v23.691c0,2.035-0.279,4.013-0.827,5.882
	c-2.608,9.444-11.247,16.023-21.079,16.023H42.903z"/>
<path style="fill:#EDAB49;" d="M109.354,289.338v23.691c0,0.994-0.129,1.951-0.405,2.853c-1.233,4.621-5.448,8.007-10.455,8.007
	h-55.59c-6.001,0-10.861-4.86-10.861-10.861v-23.691c0-5.78,4.51-10.511,10.216-10.824c0.203-0.037,0.423-0.037,0.645-0.037h55.59
	C104.494,278.478,109.354,283.337,109.354,289.338z"/>
<path style="fill:#FFC772;" d="M109.354,289.338v23.691c0,0.994-0.129,1.951-0.405,2.853c-0.203,0.037-0.423,0.037-0.626,0.037
	H52.715c-6.001,0-10.861-4.86-10.861-10.861v-23.691c0-0.994,0.129-1.951,0.405-2.853c0.203-0.037,0.423-0.037,0.645-0.037h55.59
	C104.494,278.478,109.354,283.337,109.354,289.338z"/>
<path style="fill:#27D1CF;" d="M362.554,0.003H149.439c-12.09,0-22.96,7.369-27.437,18.6l-4.589,11.514
	c-5.08,12.745,4.308,26.594,18.028,26.594h241.113c13.72,0,23.108-13.849,18.027-26.594l-4.589-11.514
	C385.514,7.371,374.645,0.003,362.554,0.003z"/>
<path style="fill:#13BFBE;" d="M174.881,30.115l4.589-11.514c4.476-11.232,15.346-18.6,27.437-18.6h-57.469
	c-12.09,0-22.96,7.369-27.437,18.6l-4.589,11.514c-5.08,12.745,4.308,26.594,18.028,26.594h57.469
	C179.189,56.709,169.801,42.861,174.881,30.115z"/>
<g>
</g>
<g>
</g>
<g>
</g>
<g>
</g>
<g>
</g>
<g>
</g>
<g>
</g>
<g>
</g>
<g>
</g>
<g>
</g>
<g>
</g>
<g>
</g>
<g>
</g>
<g>
</g>
<g>
</g>
</svg>
