<?xml version="1.0" encoding="iso-8859-1"?>
<!-- Generator: Adobe Illustrator 19.0.0, SVG Export Plug-In . SVG Version: 6.00 Build 0)  -->
<svg version="1.1" id="Capa_1" xmlns="http://www.w3.org/2000/svg" xmlns:xlink="http://www.w3.org/1999/xlink" x="0px" y="0px"
	 viewBox="0 0 512.001 512.001" style="enable-background:new 0 0 512.001 512.001;" xml:space="preserve">
<path style="fill:#FEA832;" d="M325.857,135.099v-0.3c-22.5-9-46.201-13.799-69.902-13.799c-24.001,0-47.703,4.799-69.902,13.799
	v0.3l-3.596,38.401l62.999,62.999c2.699,3.001,6.599,4.501,10.499,4.501s7.8-1.5,10.499-4.501l66.002-66L325.857,135.099z"/>
<path style="fill:#FE9923;" d="M266.454,236.499c-2.699,3.001-6.599,4.501-10.499,4.501V121c23.701,0,47.402,4.799,69.902,13.799
	v0.3l6.599,35.4L266.454,236.499z"/>
<path style="fill:#FEDBAB;" d="M255.954,0c-41.4,0-75,33.6-75,75s33.6,75,75,75s75-33.6,75-75S297.354,0,255.954,0z"/>
<path style="fill:#136EF1;" d="M481.28,213.256l-81.039-26.484l-10.078-10.078c-18.464-18.446-39.983-33.018-64.343-41.772
	l-80.471,80.473c-5.859,5.859-5.859,15.352,0,21.211l90,91c2.871,2.871,6.709,4.395,10.605,4.395l15-22.189v-41.316
	c0.205,0.088,0.439,0.161,0.645,0.234l91.85,30.264c5.01,1.348,9.434,2.007,13.506,2.007c19.482,0,36.65-12.334,42.744-30.674
	c0-0.059,0.029-0.103,0.059-0.146C517.345,246.435,504.952,221.459,481.28,213.256z"/>
<path style="fill:#FEC478;" d="M255.954,150V0c41.4,0,75,33.6,75,75S297.354,150,255.954,150z"/>
<path style="fill:#17ACE8;" d="M255.954,204.699c-65.999-66-69.902-69.901-69.902-69.901c-24.298,9.001-45.897,23.401-64.197,42.001
	l-10.203,9.901l-81.098,26.699c-23.7,8.1-35.998,33.001-28.197,57C8.355,288.699,25.454,301,44.954,301
	c4.2,0,8.401-0.601,14.399-2.401l91.3-30h0.3v75.7c0,6.301,3.9,12.001,9.902,14.101l81.299,29.399
	c1.501,0.601,3.3,0.901,5.098,0.901c1.802,0,3.604-0.3,5.101-0.901l3.6-1.199l93.3-33.9c6.603-1.5,11.7-7.5,11.7-14.7
	c0-21,0-28.301,0-28.301C314.753,263.8,280.857,229.9,255.954,204.699z"/>
<path style="fill:#1689FC;" d="M360.954,309.699c0,0,0,7.301,0,28.301c0,7.2-5.098,13.2-11.7,14.7l-93.3,33.9V204.699
	C280.857,229.9,314.753,263.8,360.954,309.699z"/>
<path style="fill:#A4D9F5;" d="M379.554,416.899c-6.899-9.598-16.498-16.8-28.202-21.299l-95.398-34.801l-101.7-36.899
	c-15-5.4-31.198-5.099-45.597,1.5c-14.703,6.901-25.803,18.9-31.501,34.2c-11.104,31.199,5.098,65.7,35.698,76.8l8.701,3.3
	c0.601,0,1.201,0.3,1.802,0.3l132.598,48.6l54.602,19.801c6.599,2.399,13.499,3.6,20.398,3.6c24.602,0,47.703-15.3,56.4-39.6
	c0,0,0,0,0-0.3C393.954,453.199,390.954,432.499,379.554,416.899z"/>
<path style="fill:#81C8EE;" d="M387.354,472.099c0,0.3,0,0.3,0,0.3c-8.698,24.3-31.798,39.6-56.4,39.6
	c-6.899,0-13.799-1.201-20.398-3.6l-54.602-19.801v-127.8l95.398,34.801c11.704,4.499,21.302,11.7,28.202,21.299
	C390.954,432.499,393.954,453.199,387.354,472.099z"/>
<path style="fill:#CAE8F9;" d="M417.354,359.599c-5.402-15-16.498-27.299-30.901-33.9c-14.099-6.599-29.399-7.2-44.099-2.401
	c-0.601,0.3-1.198,0.3-1.798,0.601L255.954,354.5l-113.101,41.1c-11.4,4.499-20.999,11.7-27.598,21
	c-7.5,9.899-11.704,22.5-11.704,35.4c0,6.599,1.201,13.5,3.604,20.4c9.001,24.3,32.098,39.6,56.697,39.6
	c6.603,0,13.502-1.201,20.101-3.6l72.001-26.4l125.398-45.601c23.701-8.399,39.602-31.199,39.602-56.4
	C420.954,373.4,419.753,366.499,417.354,359.599z"/>
<path style="fill:#B7E0F6;" d="M420.954,379.999c0,25.201-15.901,48.001-39.602,56.4L255.954,482V354.5l84.602-30.601
	c0.601-0.3,1.198-0.3,1.798-0.601c14.7-4.799,30-4.199,44.099,2.401c14.403,6.601,25.499,18.9,30.901,33.9
	C419.753,366.499,420.954,373.4,420.954,379.999z"/>
<g>
</g>
<g>
</g>
<g>
</g>
<g>
</g>
<g>
</g>
<g>
</g>
<g>
</g>
<g>
</g>
<g>
</g>
<g>
</g>
<g>
</g>
<g>
</g>
<g>
</g>
<g>
</g>
<g>
</g>
</svg>
