<?xml version="1.0" encoding="iso-8859-1"?>
<!-- Generator: Adobe Illustrator 19.0.0, SVG Export Plug-In . SVG Version: 6.00 Build 0)  -->
<svg version="1.1" id="Capa_1" xmlns="http://www.w3.org/2000/svg" xmlns:xlink="http://www.w3.org/1999/xlink" x="0px" y="0px"
	 viewBox="0 0 512 512" style="enable-background:new 0 0 512 512;" xml:space="preserve">
<path style="fill:#E8509A;" d="M512,256c0,59.193-20.093,113.695-53.823,157.059C411.335,473.266,338.192,512,256,512
	s-155.335-38.734-202.177-98.941C20.093,369.695,0,315.193,0,256S20.093,142.305,53.823,98.941
	c21.682-27.857,48.985-51.127,80.217-68.075C170.297,11.18,211.843,0,256,0s85.703,11.18,121.96,30.866
	c31.232,16.948,58.535,40.218,80.217,68.075C491.907,142.305,512,196.807,512,256z"/>
<path style="fill:#36539C;" d="M458.177,76.309v336.75C411.335,473.266,338.192,512,256,512s-155.335-38.734-202.177-98.941V76.309
	c0-25.098,20.334-45.443,45.432-45.443h313.49C437.833,30.866,458.177,51.21,458.177,76.309z"/>
<path style="fill:#344780;" d="M123.288,30.866c-25.098,0-45.432,20.344-45.432,45.443v363.53
	c-8.62-8.349-16.656-17.293-24.033-26.781V76.309c0-25.098,20.334-45.443,45.432-45.443
	C99.255,30.866,123.288,30.866,123.288,30.866z"/>
<rect x="101.616" y="95.901" style="fill:#FCE45B;" width="308.757" height="351.065"/>
<g>
	<polygon style="fill:#58D8D2;" points="200.621,158.061 230.923,158.061 190.286,117.425 149.649,158.061 179.951,158.061 
		149.649,188.363 179.951,188.363 149.649,218.665 230.923,218.665 200.621,188.363 230.923,188.363 	"/>
	<polygon style="fill:#58D8D2;" points="202.71,439.139 172.408,439.139 180.234,446.966 143.914,446.966 151.74,439.139 
		121.438,439.139 151.74,408.837 121.438,408.837 162.074,368.201 202.71,408.837 172.408,408.837 	"/>
	<polygon style="fill:#58D8D2;" points="341.454,338.829 371.756,338.829 331.119,298.192 290.482,338.829 320.784,338.829 
		290.482,369.131 320.784,369.131 290.482,399.433 371.756,399.433 341.454,369.131 371.756,369.131 	"/>
</g>
<path style="fill:#E8509A;" d="M376.792,145.416L376.792,145.416c-14.486-14.486-37.973-14.486-52.459,0l0,0
	c-14.486,14.486-14.486,37.973,0,52.459l26.229,26.229l26.229-26.229C391.279,183.389,391.279,159.902,376.792,145.416z"/>
<g>
	<circle style="fill:#FFFFFF;" cx="350.563" cy="171.645" r="19.331"/>
	<path style="fill:#FFFFFF;" d="M247.118,412.421h-15.673V383.76c0-1.58-0.109-3.169-0.325-4.722l15.524-2.156
		c0.314,2.265,0.474,4.579,0.474,6.879L247.118,412.421L247.118,412.421z M223.154,361.524c-6.194-7.142-15.15-11.408-24.572-11.706
		l0.495-15.665c13.778,0.435,26.87,6.669,35.918,17.103L223.154,361.524z M171.848,342.673c-11.835-7.15-20.21-18.989-22.98-32.48
		l15.353-3.152c1.893,9.222,7.628,17.319,15.734,22.218L171.848,342.673z M164.348,286.436l-15.295-3.425
		c3.01-13.442,11.596-25.13,23.555-32.068l7.865,13.558C172.283,269.251,166.405,277.247,164.348,286.436z M351.086,259.939h-34.482
		v-15.673h34.482V259.939z M292.571,259.939H258.09v-15.673h34.482V259.939z M234.057,259.939h-34.482v-15.673h34.482V259.939z"/>
</g>
<g>
</g>
<g>
</g>
<g>
</g>
<g>
</g>
<g>
</g>
<g>
</g>
<g>
</g>
<g>
</g>
<g>
</g>
<g>
</g>
<g>
</g>
<g>
</g>
<g>
</g>
<g>
</g>
<g>
</g>
</svg>
